<svg width="24" height="24" viewBox="0 0 24 24" fill="none" xmlns="http://www.w3.org/2000/svg">
<path fill-rule="evenodd" clip-rule="evenodd" d="M20.556 22.9979H3.44792C2.09813 22.9979 1.00391 21.9037 1.00391 20.5539V3.44584C1.00391 2.09605 2.09813 1.00183 3.44792 1.00183H20.556C21.9058 1.00183 23 2.09605 23 3.44584V20.5539C23 21.9037 21.9058 22.9979 20.556 22.9979ZM16.6797 19.9429H19.9438V13.2376C19.9438 10.4005 18.3355 9.02868 16.0891 9.02868C13.8417 9.02868 12.8959 10.7788 12.8959 10.7788V9.35224H9.75023V19.9429H12.8959V14.3835C12.8959 12.8938 13.5816 12.0074 14.8941 12.0074C16.1005 12.0074 16.6797 12.8592 16.6797 14.3835V19.9429ZM4.05773 6.01118C4.05773 7.0904 4.92598 7.96547 5.99746 7.96547C7.06894 7.96547 7.93668 7.0904 7.93668 6.01118C7.93668 4.93195 7.06894 4.05688 5.99746 4.05688C4.92598 4.05688 4.05773 4.93195 4.05773 6.01118ZM7.65329 19.9429H4.37317V9.35224H7.65329V19.9429Z" fill="#0D0D0D"/>
</svg>
